<svg xmlns="http://www.w3.org/2000/svg" viewBox="0 0 933.7 710.88"><defs><style>.cls-1{fill:#14007d;}</style></defs><title>Asset 1</title><g id="Layer_2" data-name="Layer 2"><g id="Layer_1-2" data-name="Layer 1"><path class="cls-1" d="M710.29,256.43c-4.12,1.7-7.66,3.55-11.43,4.49-1.29.32-3.4-1.38-4.69-2.61-2.27-2.16-3.78-5.41-6.36-6.87-4.06-2.31-8.6-3.28-13.18-.21-10.35,6.93-21.09,13.31-31.25,20.5-22.58,16-47.44,22.93-75,19.91-3.83-.42-7.15-.66-9.45,3.5-.56,1-3.9,1.54-5.27.88-5.39-2.61-10.55-5.7-15.69-8.78-2.56-1.54-4.09-1.28-5.5,1.52-2,4-4.44,7.81-6.62,11.75-.46.83-1.15,2.33-.82,2.7,3.59,4,0,6.86-1.62,9.73q-12.28,21.75-25,43.25c-.9,1.53-3.18,2.21-4.75,3.39-1.36,1-3,1.94-3.84,3.32q-43,74.16-85.8,148.4-51,88.27-102.17,176.44c-2.45,4.21-7,7.21-10.55,10.77l-1.23-.67c1.26-4.56,2.52-9.12,4.05-14.64l2.92,4.21c.37-.32.84-.55,1-.91.47-1.06.83-2.18,1.22-3.28,2.7-7.68,2.59-7.8-5.2-8.22a22.61,22.61,0,0,1-4.11-1l-.14-1.29c2.07-.72,4.12-1.47,6.2-2.14,2.65-.84,5.1-1.57,4-5.41-.47-1.67.05-3.64.23-5.46a12,12,0,0,0-.07-5.13l-9.06,11-1.06-.67c.29-1,.31-2.24.92-3,24.37-30.61,40.55-66.23,60.57-99.49S390.51,495.22,410,461.62q30.3-52.33,60.58-104.67c1.86-3.24,6.06-6.4,2.11-11-.35-.41.59-2.1,1.15-3.06,8.93-15.43,17.82-30.88,27-46.18,1.06-1.78,3.59-2.65,5.39-4a10.75,10.75,0,0,0,2.84-2.5c2.27-3.68,4.18-7.59,6.54-11.21,1.79-2.73.86-4.18-1.57-5.57-5.07-2.88-10.05-5.91-15.13-8.78-2.79-1.57-4.19-3.2-1.55-6.17,3-3.33.31-5.83-1.58-8.32-14.11-18.54-20.95-39.65-21.33-62.76-.13-7.27,1.55-14.55,2.07-21.85.7-9.77,1.29-19.55,1.48-29.33.1-5.07-5-10.09-10.07-10.86-2.14-.32-4.5-.17-6.37-1s-3.92-2.55-4.27-4.22c-1.9-9,.55-11.61,9.18-8.78,8.29,2.72,16.2,6.72,24,10.68,3.34,1.69,5.11,1.5,7.5-1.42C518,96,544.13,82.88,575.73,81.14a101.09,101.09,0,0,1,45.37,8.17c6.84,2.89,6,1.94,11.35-3.09,9.44-8.8,14.17-20.38,20.7-30.9,1.54-2.47,2.17-5.5,3.24-8.26a23.71,23.71,0,0,1,1.74-4.1C666.05,30.5,674.05,18.08,682,5.65c.63-1,1-2.24,1.86-2.93a20.39,20.39,0,0,1,3.91-2c0,1.51.61,3.32,0,4.47C683,14,677.91,22.54,673.2,31.35c-2.57,4.81-4.58,9.92-6.87,14.89a24.89,24.89,0,0,1-1.63,3.06C658,59.78,651,70.05,644.79,80.78,642,85.57,640.56,91.2,639,96.59c-.3,1,1.41,3.11,2.68,4a106.19,106.19,0,0,1,30.48,34c15.5,27.72,18,56.7,8,86.8-3.15,9.47-4.19,7.8,4.93,12.79C699.27,242,701.57,245.17,710.29,256.43Zm-130.85,6.72.33-1.44c1.83,0,3.66.06,5.49,0,8.17-.31,8.58-.39,10-8.51q8-44,15.64-88c2.66-15.41,2-12.22-9.43-19.39-7.21-4.54-8.08-4.56-14.52.79-24.86,20.62-49.6,41.4-74.43,62.07-2.35,2-3.18,3.82-1.86,6.87a81.07,81.07,0,0,0,22.57,30.09c2.61,2.19,4.47,2.27,6.44-.76,2.91-4.46,6.08-8.75,9.12-13.12,1.61-2.32,3.22-3.55,6.16-1.59,2.52,1.68,4.16,3,2.47,6.32-2.42,4.74-4.4,9.7-6.74,14.48-1.43,2.91-.89,4.91,2.26,5.71C561.79,258.93,570.62,261,579.44,263.15Zm-71.5-55.53c2.4-1.89,3.83-3,5.21-4.11,21.83-18.25,43.44-36.77,65.59-54.63,8.59-6.92,15.19-14.15,14.67-25.89a18.69,18.69,0,0,1,.77-3.9c1-5.6.59-6.18-5.19-6.79-35.52-3.76-67,15.59-79.44,49C504.06,176.12,504.15,191.18,507.94,207.62Zm147.34-26.57c-.13-11.8-5.72-27.14-16.1-40.87-2-2.6-3.64-2.9-6.09-.66a104.81,104.81,0,0,1-11.47,9.63c-3.71,2.51-5.16,5.84-5.86,9.9q-8.12,47-16.28,93.94c-1,5.85-.3,6.46,5.5,4.59C634.64,248.06,654.93,219.37,655.28,181.05Zm17,9.28c-1-24.8-6.92-44-20.49-60.42-.94-1.13-3-1.32-4.57-2,.11,1.73-.45,4,.42,5.1,18.08,24,22.9,50.33,15,79.21-.38,1.4,1,3.26,1.49,4.9,1.24-1.21,3.29-2.24,3.6-3.65C669.7,204.63,671.28,195.66,672.3,190.33ZM594.11,101.8l3.58-2.33c-1.26-1-2.42-2.8-3.79-3-31.5-4-58.61,4.9-80.72,28-1,1.06-.85,3.27-1.23,5,1.69-.41,3.73-.36,5-1.31,8-5.85,15.4-12.88,24-17.72C557,101.37,574.55,99,594.11,101.8Zm-78,149.86,1.24-1.09c-1-1.2-2-2.44-3-3.58a93.22,93.22,0,0,1-19.88-33.71c-1.34-4-4.4-8.21.08-12.35.49-.45.16-1.91.05-2.88a87.68,87.68,0,0,1,10.68-53.9c1.06-1.91,3.28-4.32-.08-5.72-1-.41-3.66,1.51-4.54,3-19.73,33.19-14.78,78.25,11.6,106.64C513.46,249.34,514.83,250.46,516.12,251.66Zm41,21.73-.3,1.14a8.24,8.24,0,0,0,2.37,1.19c5.92.81,11.83,2,17.77,2.16,34.58.85,61.42-13.38,80.57-42.14a21.55,21.55,0,0,0,2.75-5.3c.3-.95-.44-2.25-.71-3.39a11.62,11.62,0,0,0-3.35.87c-.78.46-1.21,1.54-1.73,2.4-9.95,16.47-23.6,28.68-41.46,36.08-1.14.48-2.9,1.49-2.92,2.3-.12,3.87-3.11,3.93-5.55,4.55a94.07,94.07,0,0,1-43,.81C560.13,273.75,558.64,273.61,557.17,273.39ZM597.52,139l16.25,9.78c3-12.05,5.68-22.92,8.37-33.8l-1.68-.91ZM622,137.4l1.41.55c5.17-6,10.43-11.87,15.41-18,.57-.7,0-3.38-.79-3.94a68.43,68.43,0,0,0-8.75-4.56,3.17,3.17,0,0,0-.75,1.19Q625.28,125,622,137.4Zm-21.86-11,20.47-21.23c.19.23-.06-.25-.45-.49-9.34-5.73-10.34-5.27-13.61,5C604.9,114.93,602.65,120,600.17,126.42Z"/><path class="cls-1" d="M315.08,354.87l-57.7,22.93V379l29.81,5.25-.19,1.37-69-6.33-.22.83,11.82,4.48c-1.75,1.27-2.6,2.18-3.66,2.6-4.33,1.73-8.78,3.16-13.06,5-3.51,1.51-6.08.91-9-1.7-21.51-19.41-42.65-39.3-64.93-57.8-25-20.73-51-40.2-76.6-60.11-7.89-6.13-16.07-11.89-24.08-17.86-2.92-2.17-5.74-4.46-8.61-6.7l.71-1.06L122.09,304C83.71,274.54,41.65,249.73,7.9,214.4l.64-1.14L315.17,353Z"/><path class="cls-1" d="M628.73,384.29l30.53-5.16c.08-.35.16-.7.25-1.05l-57.9-23.34c-.12-.62-.23-1.23-.35-1.84L907.83,213.21c.39.5.77,1,1.15,1.51l-16.22,14.53A204.06,204.06,0,0,0,876.46,245l19.45-8.42.38.83-123.92,79.8c.34.7.69,1.41,1,2.11l26.48-9,.69,1.08c-1.07,1.1-2.07,2.28-3.21,3.3q-42.6,38.23-85.18,76.49c-2.3,2.08-4.31,2.58-7.16,1.42-5.77-2.34-11.65-4.42-17.48-6.61,0-.48,0-1-.07-1.45l11.15-4.6-.07-.61L629,385.69C628.88,385.22,628.8,384.76,628.73,384.29Z"/><path class="cls-1" d="M449.84,288c.11-2.06.35-3.83.26-5.58-.15-3.25,1.55-4.44,4.52-4.64,3.21-.22,4,1.63,4,4.33,0,2.88,0,5.75,0,8.63l2.22-.22c-1-7.43-1.51-14.94-3.06-22.25-.79-3.67-.29-5.42,3-7.09,10.23-5.16,10.23-5.2,12.84,6q8.44,36.45-17.35,63.52c-1.93,2-2.39,3.6-.85,6.07,2.64,4.23,5.05,8.62,7.36,13,.64,1.22,1.28,3.15.75,4.13-4,7.58-8.31,15-13.09,23.49-2.43-3.9-4.2-6.62-5.84-9.41-3.2-5.46-6.53-10.85-9.43-16.47-2.07-4-4.24-5.1-9-3.91-26.58,6.64-48.85-1.15-67.19-21.18-2.83-3.1-2.75-4.94,1.07-7.19,8.14-4.8,7.81-4.69,15.26,1.51,5,4.18,10.82,7.43,16.27,11.09l.8-1.22c-3.15-1.87-6.33-3.7-9.44-5.64-2.12-1.32-3.07-2.94-1.14-5.31,1.64-2,2.91-4.16,6-2a82.89,82.89,0,0,0,7.73,4.18c.73-9.87,5.07-18.54-1.46-27.21-3.29-4.36-5.19-9.75-8.44-14.14-5.68-7.68-3.65-16.5-4.51-24.9a18.24,18.24,0,0,1,.13-4.49c.69-4.9-1.15-8.16-6.05-9.25-4.28-1-6.71-3.68-8.81-7.36C348.83,203.8,329.09,174,314,142.06c-12.5-26.46-27.72-51.14-41.65-76.65-9.26-16.95-19.27-33.49-28.89-50.24-3.28-5.71-2.24-8.69,4.09-12.41,7-4.12,9.82-3.8,13.27,2.14C280.48,38.74,300,72.69,319.75,106.47c3.42,5.83,8.12,10.9,11.86,16.56,5.32,8,10.53,16.16,15.39,24.48,14.09,24.17,27.85,48.54,42.09,72.63a17.7,17.7,0,0,1,2.27,13.76c-.84,3.52.27,5.72,3.29,7.42,4.77,2.7,9.75,5.15,14.09,8.43a62.2,62.2,0,0,1,10.79,10.66,39.7,39.7,0,0,1,6.5,11.2c3.6,10,12.37,12.79,20.87,16.13A13.15,13.15,0,0,0,449.84,288Zm-35.95,20.7-1.67,1.33c2,3.55,3.88,7.22,6.21,10.56.78,1.12,2.79,1.36,4.24,2,.11-1.62.95-3.83.2-4.74A127,127,0,0,0,413.89,308.74Zm18.55-9.58c-2,5.08-1.89,9.22,1.18,12.79.86,1,2.6,1.25,3.94,1.85.29-1.6,1.27-3.51.72-4.72C436.8,305.81,434.67,302.85,432.44,299.16Zm12.39,4.47c4.26-6.37,3.75-7.2-5.94-10.29C441,296.94,442.73,300,444.83,303.63Zm-39.37,11.6c-2.85,7-1.79,11.06,4.78,8.6Z"/><path class="cls-1" d="M657.54,686.21l-9.64-7.54c-.24.23-.48.47-.71.71a8.22,8.22,0,0,0,.83,1.25c1.06,1.14,2.16,2.24,3.25,3.35a30.37,30.37,0,0,0-4,2.08c-3.47,2.49-10.19,1.15-9.63,9,.91-6.05,3.68-4.74,6.72-2.59,2.5,1.78,5,3.5,7.82,5.41-7.7,4.06-15.92,1.6-20-5.53q-23-39.81-46-79.63-56.91-98.43-113.91-196.8c-1.84-3.17-2-5.64-.08-8.68,3.91-6.3,7.61-12.74,12.17-20.44Z"/><path class="cls-1" d="M162.8,519.79c2.15-2.17,4.3-4.33,6.42-6.51,12.69-13,25.17-26.19,38.15-38.87,4.3-4.21,9.88-7.1,13.83-9.86l-29.78,6.51L191,469.7l18.91-6.06-5.44-6.08,89.67-28.42.85,1.29c-.94,1.22-1.78,2.53-2.83,3.65-5.78,6.23-11.9,12.16-17.36,18.65-7.74,9.22-17.11,16-27.62,21.8-26.72,14.64-53.22,29.7-79.82,44.57-1.21.67-2.53,1.13-3.8,1.69Z"/><path class="cls-1" d="M622.3,429.15l89,28.35-4.23,6.16,18.21,5.78-.36,1.58-34.82-7.43c.16.19.3.56.51.59,10.67,1.86,17.68,9,24.74,16.46,11.46,12.07,23.37,23.72,35.06,35.57,1.23,1.25,2.33,2.63,3.49,3.94l-.75,1.05c-1.94-1.05-3.9-2.07-5.82-3.15-29.18-16.36-58.4-32.66-87.49-49.18a48.52,48.52,0,0,1-10.5-8.29c-8.61-8.81-16.92-17.9-25.32-26.91a36.36,36.36,0,0,1-2.53-3.48Z"/><path class="cls-1" d="M276.54,269.29l-2.42-4.7.56-.64c1,.88,2.32,1.58,2.94,2.67,4.81,8.38,12.32,13.53,20.32,18.54,9.87,6.18,19.15,13.29,28.48,20.28a11.89,11.89,0,0,1,4.16,6.29c1.32,5.76,1.92,11.69,2.9,18.21-1.9-.35-3-.48-4-.77-.79-.22-1.5-.72-2.29-1-20.33-6.93-36.46-18.76-47.64-37.68-6.4-10.83-15-20.39-22.51-30.55a34.79,34.79,0,0,1-2.11-3.59l.9-.9L275.9,270Z"/><path class="cls-1" d="M843,504c-4.71,0-9.44.19-14.14,0-24.63-1.16-49.25-2.52-73.88-3.59A20.48,20.48,0,0,1,742.59,496c-10.58-8.28-21.31-16.36-32-24.52l.51-1.48,132.07,32.8C843.11,503.19,843.05,503.6,843,504Z"/><path class="cls-1" d="M53.29,532.47l126.65-48.25.72,1.16a18.52,18.52,0,0,1-1.84,2.5c-8.9,8.76-17.71,17.62-26.86,26.11a19.17,19.17,0,0,1-9,4.85c-29,5.3-58,10.26-87,15.29a8.87,8.87,0,0,1-2.23-.14Z"/><path class="cls-1" d="M234.79,246.7c7-9.89,13.55-20,20.91-29.63a249.47,249.47,0,0,1,57.07-53.93c2-1.37,4.28-4.64,7-.6,3.88,5.75,4,8.17,0,11.06a258.71,258.71,0,0,0-67.9,71c-.68,1.06-1.75,2.39-2.81,2.57-4.32.73-8.71,1-13.07,1.53Z"/><path class="cls-1" d="M806.73,300.46,932.87,249l.83,1.5c-1.68,1.17-3.33,2.4-5.05,3.5-19.12,12.16-38.5,23.93-57.26,36.62-8.48,5.75-17.77,6-27.08,7.28-11.72,1.54-23.48,2.8-35.22,4.16a10.36,10.36,0,0,1-1.91-.14Z"/><path class="cls-1" d="M.79,242.77,115.61,316.1l-.12,1a18,18,0,0,1-3.91-.31c-15-4.53-29.91-9.05-44.78-13.81a22.69,22.69,0,0,1-8.23-4.45c-18.93-17.25-37.69-34.7-56.49-52.11A22,22,0,0,1,0,243.8Z"/><path class="cls-1" d="M494.46,647c-3.1,0-8.79-8-7.29-10.71.54-1,2.43-1.46,3.77-1.62,22.74-2.64,44.94-7.55,66.31-15.87,5.89-2.29,11.77-4.66,17.45-7.42,5.88-2.86,6.12,2.38,8.08,5.16,2.15,3.05.65,4.81-2.24,6.17A273.22,273.22,0,0,1,495,647C494.8,647,494.63,647,494.46,647Z"/><path class="cls-1" d="M615.3,602.56c-1.83-2.77-4-5.27-5.14-8.2-.45-1.19,1.06-3.91,2.43-4.88,22.24-15.71,41.21-34.73,57.68-56.33.2-.27.42-.52.62-.78,5.36-7,7.73-6.85,11.54,1.42.67,1.45-.12,4.24-1.18,5.72a255.77,255.77,0,0,1-50.94,52.54c-3.68,2.86-7.49,5.57-11.26,8.3C618.12,601,617.07,601.53,615.3,602.56Z"/><path class="cls-1" d="M442.89,116.28c-.7,7.27-5.25,12.6-11.35,13.48A267.19,267.19,0,0,0,365.78,148c-7.17,3-8,2.44-11.85-4.17-1.82-3.11-.78-4.33,2.06-5.6,17.24-7.71,35-13.91,53.54-17.48,9.14-1.76,18.38-3,27.6-4.39A39.47,39.47,0,0,1,442.89,116.28Z"/><path class="cls-1" d="M365.71,615.55c7.5,2.67,14,5.09,20.57,7.31a241.5,241.5,0,0,0,58.94,11.93c6.79.52,9.63,4.69,7,10.92-.51,1.23-3.47,2.16-5.21,2a263,263,0,0,1-59.18-11c-5.87-1.82-11.57-4.2-17.47-5.88-5-1.42-6.8-4.15-5.51-9.15A57.14,57.14,0,0,0,365.71,615.55Z"/><path class="cls-1" d="M582.86,329.12c1.23-6.79.73-14.68,4.17-20.05s10.32-9.86,16.6-11.85c12.41-3.92,24.67-7.87,36-14.46a15.15,15.15,0,0,1,3-.63c-4.84,6.64-9.39,12.08-13,18.07a50.74,50.74,0,0,1-27.69,22.2c-6,2.11-11.73,5.23-17.58,7.89Z"/><path class="cls-1" d="M315,602.78c-11.35-9.57-23-18.89-34-28.87-6.52-5.89-12-12.9-18.13-19.23-2.65-2.74-3.12-5.13-.67-8.2,1.5-1.89,2.57-4.12,5.59-7.26a26.07,26.07,0,0,0,2.43,4.33,257.1,257.1,0,0,0,44.46,42.12C322.23,591.29,322.44,594.44,315,602.78Z"/><path class="cls-1" d="M726.62,401.69c4.17-.43,6.28,1.47,5.41,6.12-2.74,14.83-5.44,29.68-8.35,44.49-.3,1.48-1.9,2.72-2.89,4.07-1.68-1.37-3.84-2.42-4.93-4.15-3.87-6.15-2-12.65-.8-19.16,1.56-8.32,2.86-16.68,4-25.06C719.68,403.61,721.71,401.33,726.62,401.69Z"/><path class="cls-1" d="M218.15,439.24c-.66,4.29-5.14,3.73-8.19,5s-3.75-1.09-4.13-3.31c-1.92-11.09-3.75-22.19-5.65-33.29-.73-4.28.92-5.71,5.18-4.93,6.78,1.24,7.45,1.87,8.29,8.88.55,4.61,1.17,9.21,1.91,13.79C216.28,429.81,217.2,434.19,218.15,439.24Z"/><path class="cls-1" d="M236.2,271.12c-.61,1.85-.95,3.12-1.44,4.34-2.63,6.64-5.45,13.21-7.9,19.92-1.1,3-2.39,3.87-5.51,2.62-8.15-3.26-8.49-3.77-4.93-11.94q5.09-11.64,10.42-23.18c.57-1.21,1.89-2.08,2.85-3.11a15.91,15.91,0,0,1,2.78,3.11C233.91,265.64,235.06,268.55,236.2,271.12Z"/><path class="cls-1" d="M694.09,267.42a4.76,4.76,0,0,1,1.07-.83c10.42-4.5,10.43-4.49,14.87,6,1.68,4,3.47,7.88,5,11.91,2.12,5.68-3.38,5.36-6,7.14-2.79,1.91-4.49.46-5.68-2.33-3-7.13-6.21-14.21-9.32-21.32C694,267.89,694.05,267.7,694.09,267.42Z"/><path class="cls-1" d="M233.16,240.72c3.31-18.94,66.65-84.15,81.85-84.69C281.93,178.69,254.88,207.15,233.16,240.72Z"/><path class="cls-1" d="M237.28,255.92c1.81,5.2,3.28,9.4,4.74,13.61l-2.14,1.05c-1.45-2.34-3.3-4.52-4.28-7.05-1.93-5-4.81-7.54-10.52-6.37-2.67.55-5.56.1-8.63.1.42-4.39,3.79-4.3,6.24-4.33,6.5-.06,8.15-.23,4.25-7.9a45.21,45.21,0,0,1-2.08-6l1.94-1a40.65,40.65,0,0,1,3.33,4.6c4.67,8.75,4.63,8.67,14.34,8,2-.13,4.05.77,6.08,1.19-2,1.12-3.83,2.59-6,3.27S240.14,255.64,237.28,255.92Z"/><path class="cls-1" d="M682.71,521.49c3.59,7.87,11,12.54,13,20.28L694.07,543a25.26,25.26,0,0,1-3.84-3.25c-4.05-5.07-8.16-10.11-11.79-15.48-1.18-1.75-.94-4.45-1.35-6.72,2.12-.36,4.36-1.33,6.35-1,6.54,1.18,13,2.71,19.44,4.41,1.41.38,2.47,2,3.69,3.12-1.47.41-3,1.34-4.4,1.12C695.83,524.21,689.55,522.84,682.71,521.49Z"/><path class="cls-1" d="M478.33,639.33q-2.29,7.81-4.6,15.63c-.43,1.43-.6,3-1.42,4.21-.59.83-2.07,1-3.15,1.51-.27-1-1-2.16-.74-3,2-7.2,4.08-14.4,6.49-21.48.56-1.64,2.35-3.73,3.8-3.93,1.28-.18,3.55,1.68,4.24,3.17,3.55,7.65,6.73,15.46,10.09,23.36-3.71,2-5.11-.06-6.14-2.4-2.47-5.6-4.8-11.26-7.19-16.9Z"/><path class="cls-1" d="M260,536c-6.31,1.83-11.18,3.25-16.05,4.65a34.13,34.13,0,0,1-5.28,1.36,2.78,2.78,0,0,1-2.32-1.29,2.58,2.58,0,0,1,1.13-2.28c8-2.67,16-5.5,24.23-7.56,3.38-.86,5.49,2.36,3.69,5.43-4.11,7-8.65,13.8-13.16,20.58-.48.73-1.91.83-2.9,1.22-.16-1.19-.85-2.68-.38-3.52,2.61-4.63,5.52-9.08,8.3-13.62C258,539.79,258.64,538.55,260,536Z"/><path class="cls-1" d="M686.73,540.67c-1.2,12.05-54.25,63.34-68.88,66.76C643.88,588.34,667.1,566.35,686.73,540.67Z"/><path class="cls-1" d="M494.12,652c32.19-4.31,63.23-12.62,92.64-26.57C576.21,637.18,505.06,656.92,494.12,652Z"/><path class="cls-1" d="M453.24,652.6c-7.53,6.55-82.64-10.07-88.61-18.21,1.13-.06,2.14-.39,2.91-.1C394.76,644.7,423.06,650.37,453.24,652.6Z"/><path class="cls-1" d="M438.45,111.17a335.85,335.85,0,0,0-88,24.42C357.6,126,426.8,106.66,438.45,111.17Z"/><path class="cls-1" d="M339.67,629c5.68-6.35,11.11-12.94,17.14-18.93,2.87-2.84,6.36-.87,6.18,3.3-.34,7.62-1,15.23-1.74,22.82-.12,1.17-1.5,2.21-2.29,3.32-.68-1.28-2-2.58-1.94-3.83.19-6.26.73-12.51,0-19.58L341.7,631.06Z"/><path class="cls-1" d="M439.28,130.66c1.75-3.07,3.17-6.4,5.34-9.13,2.48-3.14,2-5.34-.46-8.17a33.39,33.39,0,0,1-5.52-9.55c6,0,7.07,5.73,10.79,8.33,4.88-1.4,3.86-9.65,11.69-9.59-2.93,3.65-5.69,5.94-6.88,8.88s-.95,6.71-2,9.24l-11,11.57Z"/><path class="cls-1" d="M463.39,633.15c-3.85,8.88-5.37,17.21-.86,26.58-3.3,2.6-7,.54-11.14.24C457,651.1,456,642.64,453,633.15Z"/><path class="cls-1" d="M311.91,606.68c-21.68-13.17-39.67-30.6-55.49-50.44Z"/><path class="cls-1" d="M256.12,519.78c-9.1.17-19.53,7-22.08,14.55a9.51,9.51,0,0,1-6-10c8.1,1.07,17.9-5.15,21.74-14.83Z"/><path class="cls-1" d="M248,506.22c-9.14-.21-20,5.69-23.83,14.23-2.2-3.66-4-6.52-5.57-9.49-.12-.23,1.8-2,2-1.86,3.91,2.7,6.55-.52,9.51-2,2.39-1.16,4.94-2.21,6.93-3.9,1.82-1.55,3-3.87,5.26-7Z"/><path class="cls-1" d="M739.54,403.21c-1.79,18.71-4.68,37.22-10.47,55.18l-1.64-.29q5.09-27.6,10.16-55.21Z"/><path class="cls-1" d="M685.15,505.17c.88-1.89,1.4-4.11,2.78-5.5.67-.69,3.15-.26,4.41.41,6,3.2,11.87,6.67,17.8,10,3.15,1.77,2.25,4.12.66,6.19-.37.48-3.23-.15-3.25-.36-.2-3.88-3.39-4.58-6-5.93a51.76,51.76,0,0,0-6.2-3.17c-2.69-1-5.53-1.46-8.31-2.15Z"/><path class="cls-1" d="M328.81,592.55c-.66,1.57-1,2.69-1.56,3.69-3.09,5.49-6.36,10.88-9.31,16.45-1.89,3.56-4.17,3.29-6.79,1.21-.79-.62-1.14-1.79-1.69-2.7.79-.42,1.6-.8,2.38-1.25,1.18-.7,2.71-1.18,3.45-2.21,2.61-3.63,5-7.41,7.33-11.24a8.42,8.42,0,0,0,.73-3.65,19.63,19.63,0,0,0-.26-3.13c.91,0,2-.33,2.69.08A19.49,19.49,0,0,1,328.81,592.55Z"/><path class="cls-1" d="M722.57,397.07c5.86-6.21,15.31,1.28,21.37-5.58,2.45,3.86,1.59,7.29.49,10.62-.15.44-2.6.71-2.72.47-2.11-4.46-6.18-3-9.6-3.28-3.14-.27-6.3-.32-9.45-.46Z"/><path class="cls-1" d="M194.74,402.37l7.5,44.89C198,444.33,191.68,409,194.74,402.37Z"/><path class="cls-1" d="M461.79,643.76c1-2.32,1.33-4.58,2.65-5.73s3.7-1.35,5.61-2a30.46,30.46,0,0,1,.53,4.9,6.37,6.37,0,0,1-1.12,3.75,28,28,0,0,1-4.5,3.52Z"/><path class="cls-1" d="M207.8,291.3a135.84,135.84,0,0,1,12.64-30.87l1.89.78L209.57,292Z"/><path class="cls-1" d="M695.83,516.55a73.22,73.22,0,0,1-7.27-1.43A18,18,0,0,1,685,513c.91-1.45,1.53-3.3,2.81-4.26,2.52-1.9,9,0,9.77,2.94C697.9,513.13,696.4,515.05,695.83,516.55Z"/><path class="cls-1" d="M246.25,532.61c-.67-1.66-2.09-4.44-1.81-4.62a31.37,31.37,0,0,1,8.64-4.32c.87-.24,2.53,2.39,3.83,3.71-1.11,1-2.08,2.28-3.37,2.9A62.12,62.12,0,0,1,246.25,532.61Z"/><path class="cls-1" d="M494.93,104.17c-2,4.65-3.5,8.32-5,12l-1.2.38c-1.33-4-2.66-8-4.4-13.32Z"/><path class="cls-1" d="M720.79,286.81c-4-9.1-7.5-17-11-24.9C714.68,264,722,280.71,720.79,286.81Z"/><path class="cls-1" d="M234.72,493.72c1.53,2.11,3,3.94,2.9,4a82.23,82.23,0,0,1-8.15,6.25,17.85,17.85,0,0,1-2.55-3.24C229.15,498.44,231.64,496.39,234.72,493.72Z"/><path class="cls-1" d="M247.3,512.69c-3.75,2.2-6.36,4-9.21,5.18-.51.22-2-1.93-3.07-3a95.3,95.3,0,0,1,8.07-5.4C243.54,509.23,245.06,510.94,247.3,512.69Z"/><path class="cls-1" d="M703.59,237.58l-8.49-1.87,3.06-9.05,6.57,9.45Z"/><path class="cls-1" d="M194.38,397.07,188,403.49c-.54-4.42-.95-7.83-1.36-11.25l1.33-.66Z"/><path class="cls-1" d="M465.69,103.15H477.5C474.73,109.25,471.51,109.47,465.69,103.15Z"/><path class="cls-1" d="M745.83,378.3c-.49,3-1,6-1.46,9l-1.48-.21C742.05,383.93,738.92,380.49,745.83,378.3Z"/><path class="cls-1" d="M650.92,706c3.42-1,5.67,0,6.53,3.23l-1,1.7-6.21-3.46Z"/><path class="cls-1" d="M705.08,243c5.33,1.21,6,2.25,5.89,8.1C709.26,248.73,707.56,246.38,705.08,243Z"/><path class="cls-1" d="M532,135.53c7.82-9.24,10.81-10.22,20.75-6.51,7.95,3,15.77,6.29,23.66,9.41,4,1.57,3.54,3.18.85,6.06-4.08,4.37-7.89,5.09-13.53,2.62-8.82-3.86-18.12-6.63-27.21-9.87C535.11,136.75,533.76,136.22,532,135.53Z"/><path class="cls-1" d="M551.82,122c11.93,3,23.08,8,34,13.58-.24.61-.48,1.21-.71,1.81l-34-13.62Z"/><path class="cls-1" d="M620,163.67c2.48,1.75,4.69,3.12,6.7,4.75,6.71,5.46,13.26,11.14,20.06,16.48,4.06,3.19,5.4,6.87,3.82,11.78-.64,2-.91,4.13-1.54,7.12-2-1.58-3.36-2.61-4.66-3.74-6.93-6-13.73-12.13-20.79-18S615.87,173.71,620,163.67Z"/><path class="cls-1" d="M650,181.86,620.57,158l1.26-1.53c10.51,7.15,20.56,14.85,29.37,24.07Z"/></g></g></svg>