<svg xmlns="http://www.w3.org/2000/svg" viewBox="0 0 742.34 114.8"><defs><style>.cls-1{fill:#fff;}</style></defs><title>Asset 4</title><g id="Layer_2" data-name="Layer 2"><g id="Layer_1-2" data-name="Layer 1"><path class="cls-1" d="M57.12,63.67c.7-2.15,1.48-4.26,2.09-6.43,4.46-16,9.07-32,13.24-48.16,1.42-5.5,4-7.81,9.77-7.17a59.21,59.21,0,0,0,12,0c4.91-.46,6.84,1.58,7.33,6.33,1.62,15.56,3.47,31.1,5.27,46.65,1.88,16.2,3.82,32.39,5.72,48.59.19,1.66.25,3.33.45,5,.35,2.8-.87,4-3.65,4-2.16-.06-4.33.06-6.49,0-12.11-.19-10.75,1.93-12.39-11.19C88,81.63,86.06,61.92,83.9,42.23a3.86,3.86,0,0,0-1.21-2.55C81.08,45.13,79.4,50.57,77.86,56c-4.73,16.82-9.39,33.66-14.1,50.49-.91,3.25-1.62,6.19-6.35,6.13-4.47-.06-6.63-1.69-7.82-5.84-6-21-12.14-41.88-18.24-62.82a7.25,7.25,0,0,0-2.08-3.59c-1.15,10-2.32,20-3.42,30-1.37,12.41-2.73,24.82-4,37.25-.32,3.29-1.79,4.8-5.08,4.74-3.83-.06-7.67-.18-11.49.06-4.08.26-5.76-1.08-5.24-5.41C1.63,94.34,2.88,81.58,4.3,68.84,6.56,48.49,9,28.15,11.09,7.78c.47-4.51,2.47-6,6.77-5.81a137.51,137.51,0,0,0,14.5,0c4.4-.25,6.59,1.43,7.77,5.77C44.51,24,49.2,40.1,53.8,56.27c.7,2.48,1.5,4.93,2.26,7.4Z"/><path class="cls-1" d="M563,63.61c1.09-3.58,2.23-7.15,3.25-10.75,4.29-15.22,8.65-30.42,12.73-45.7,1.07-4,3.12-5.43,7.09-5.23,4.82.24,9.67.23,14.5.05,4.24-.16,6.22,1.3,6.71,5.84,2.68,24.83,5.63,49.63,8.5,74.44.94,8.1,1.81,16.21,2.93,24.29.58,4.26-.62,6.41-5.24,5.92a48.84,48.84,0,0,0-5,0c-11,0-11,0-12.21-11.13q-3.24-29-6.49-58a6.43,6.43,0,0,0-1.31-3.6c-1.87,6.44-3.78,12.87-5.6,19.32-4.59,16.17-9.22,32.33-13.64,48.55-1,3.72-3,5-6.74,5s-5.79-1.32-6.83-5c-6-21.13-12.18-42.22-18.3-63.33a12,12,0,0,0-2.23-4.71c-.76,6.78-1.53,13.56-2.26,20.35-1.7,15.71-3.46,31.43-5,47.16-.39,3.89-1.93,5.77-6,5.43-2.48-.21-5,0-7.5,0-8.67,0-9,0-8-8.88C509,78.26,512,53,514.8,27.66c.78-6.95,1.75-13.88,2.33-20.84.3-3.7,2.13-4.86,5.51-4.81,5.16.08,10.34.24,15.49-.07,4.43-.27,6.62,1.4,7.78,5.72,4.14,15.43,8.55,30.79,12.92,46.16.94,3.29,2.13,6.52,3.2,9.77Z"/><path class="cls-1" d="M242.08,54.46c-.87,24.48-8.13,42.66-27.46,53.8-29.68,17.11-67-1.27-73.19-35.76C138.16,54.19,139.52,36.44,151,21,162.32,5.64,177.53-2.25,196.89.56c21.46,3.13,34.89,16.29,41.7,36.29C240.81,43.37,241.32,50.48,242.08,54.46Zm-79.45,3c1.46,5.75,2.25,11.78,4.5,17.19,3.72,8.93,10.36,15.11,20.46,16.17,10.28,1.08,18.58-2.68,24.41-11.35,8.44-12.53,8-33.6-.84-45.79-10.06-13.84-31.3-13.65-41,.43C165.38,41.08,163.67,49,162.63,57.49Z"/><path class="cls-1" d="M731.29,112.45c-10.76-.06-10.7-.08-14.47-10-5-13-1.87-10.94-16-11.16-6.49-.11-13,.25-19.48-.17-4.88-.32-7.35,1.6-8.69,6.1a63,63,0,0,1-4.51,11.61,7.75,7.75,0,0,1-5.11,3.47c-4.1.52-8.31.22-12.47.15-5.35-.08-5.74-.65-3.82-6q8-22.3,16.17-44.58c6.49-17.83,13.12-35.6,19.41-53.5,1.62-4.62,3.92-6.66,9-6.44,11.61.5,10.22-2,15,10.76Q723.68,59.24,741,105.8c2.33,6.26,2.1,6.66-4.72,6.65ZM682.88,69.72c7.06,0,12.81.1,18.54-.12.78,0,2.31-1.92,2.12-2.47-2.92-8.32-6.06-16.57-9.15-24.83h-1.57C689.62,51.14,686.41,60,682.88,69.72Z"/><path class="cls-1" d="M300.39,114.8c-13.21-.66-22.5-6.8-30.49-15.23-.8-.84-.74-3.56,0-4.64,3.16-4.48,6.79-8.63,10.14-13,1.78-2.32,3.23-2,5.32-.24a52.34,52.34,0,0,0,9.61,7c5.28,2.76,10.58.86,13.79-4.21,3-4.79,2.63-10.52-2-13.9a57.92,57.92,0,0,0-14.39-7.82c-19.32-6.91-23.07-24.65-19.54-39.18A30.25,30.25,0,0,1,300.11.14a39,39,0,0,1,28.44,8.67c2.65,2.13,3.21,4.07.67,6.56-.71.7-1.24,1.57-1.89,2.33-2.84,3.25-5.18,8.15-8.69,9.24-3,.91-7.34-2.54-11-4.17-4-1.8-7.68-2.07-10.64,2-2.81,3.83-3.46,9.42-.2,12.44,3.7,3.44,8.37,5.83,12.56,8.74,6.22,4.33,13.57,7.71,18.34,13.29,9.09,10.62,9.5,23.28,2.88,35.5S313.53,114,300.39,114.8Z"/><path class="cls-1" d="M402.65,69c0,12.33-.19,24.66.09,37,.11,5.06-1.66,6.94-6.66,6.54a116.91,116.91,0,0,0-12-.07c-2.93.07-4.31-1.33-4.44-4.13-.11-2.16-.21-4.33-.21-6.49q0-34.48.06-69c0-7.2-.19-7.35-7.23-7.37-3.66,0-7.33-.09-11,0-2.89.07-4.36-1.15-4.38-4.09,0-5-.07-10-.18-15-.06-2.9,1.27-4.32,4.18-4.32q30,0,60,0c2.75,0,4.32,1.12,4.28,4.19-.06,4.82.09,9.65.2,14.48.08,3.28-1.24,4.91-4.74,4.77-4.32-.18-8.66,0-13-.11-3.67-.13-5.05,1.53-5,5.09.08,12.83,0,25.66,0,38.48Z"/><path class="cls-1" d="M476.53,57.28c0,16.16.05,32.33,0,48.49,0,6.46-.37,6.66-6.86,6.7-2.83,0-5.67,0-8.5,0-7,0-7.36-.12-7.39-7.31-.13-32.32,0-64.65-.15-97,0-4.76,1.77-6.63,6.53-6.2a62.87,62.87,0,0,0,10,0c4.68-.32,6.5,1.51,6.44,6.34-.2,16.32-.08,32.65-.08,49Z"/></g></g></svg>